<svg viewBox="0 0 24 24" fill="none" xmlns="http://www.w3.org/2000/svg">
<path d="M12 3C12.5523 3 13 3.44772 13 4V13.5858L15.2929 11.2929C15.6834 10.9024 16.3166 10.9024 16.7071 11.2929C17.0976 11.6834 17.0976 12.3166 16.7071 12.7071L12.7071 16.7071C12.3166 17.0976 11.6834 17.0976 11.2929 16.7071L7.29289 12.7071C6.90237 12.3166 6.90237 11.6834 7.29289 11.2929C7.68342 10.9024 8.31658 10.9024 8.70711 11.2929L11 13.5858V4C11 3.44772 11.4477 3 12 3Z" fill="currentColor"/>
<path d="M5 16C5.55228 16 6 16.4477 6 17V19H18V17C18 16.4477 18.4477 16 19 16C19.5523 16 20 16.4477 20 17V19C20 20.1046 19.1046 21 18 21H6C4.89543 21 4 20.1046 4 19V17C4 16.4477 4.44772 16 5 16Z" fill="currentColor"/>
</svg>
